<svg width="543" height="795" viewBox="0 0 543 795" fill="none" xmlns="http://www.w3.org/2000/svg">
<circle cx="92.3175" cy="117.317" r="45.5" transform="rotate(-16.7726 92.3175 117.317)" fill="#FB5607" stroke="black"/>
<rect x="223.507" y="203.93" width="154.967" height="73.3091" transform="rotate(39.1943 223.507 203.93)" fill="#8338EC" fill-opacity="0.63" stroke="black"/>
<circle cx="283.992" cy="585.406" r="29.1878" transform="rotate(-16.7726 283.992 585.406)" fill="#FB5607" fill-opacity="0.69" stroke="black"/>
<circle cx="448.86" cy="165.946" r="31.4897" transform="rotate(-16.7726 448.86 165.946)" fill="#FB5607" fill-opacity="0.66" stroke="black"/>
<rect x="537.213" y="397.894" width="115.373" height="54.4446" transform="rotate(101.452 537.213 397.894)" fill="#8338EC" stroke="black"/>
<rect x="206.752" y="507.74" width="115.373" height="54.4446" transform="rotate(139.943 206.752 507.74)" fill="#8338EC" fill-opacity="0.58" stroke="black"/>
<path d="M233.25 697.996L309.903 717.359L250.265 769.323L233.25 697.996Z" fill="#FF006E" stroke="black"/>
<path d="M356.446 406.29L415.475 483.959L319.354 467.058L356.446 406.29Z" fill="#FF006E" fill-opacity="0.67" stroke="black"/>
<path d="M341.111 28.9655L396.303 133.846L278.61 119.391L341.111 28.9655Z" fill="#FF006E" stroke="black"/>
<rect x="-0.648616" y="0.282531" width="95.8899" height="66.9834" transform="matrix(-0.366382 0.930464 -0.93085 -0.365402 118.158 294.831)" fill="#FFBE0B" stroke="black"/>
<rect x="0.243278" y="0.664336" width="66.498" height="46.3604" transform="matrix(0.906915 0.421314 -0.420358 0.907358 448.879 633.959)" fill="#FFBE0B" stroke="black"/>
<circle cx="73" cy="73" r="72.5" transform="matrix(0.932546 -0.361051 0.360185 0.932881 0 658.767)" fill="#3A86FF" stroke="black"/>
<path d="M508.158 292.328C512.98 304.815 505.818 319.306 492.038 324.641C478.258 329.976 463.225 324.079 458.404 311.591C453.582 299.104 460.743 284.614 474.524 279.279C488.304 273.943 503.337 279.841 508.158 292.328Z" fill="#3A86FF" stroke="black"/>
<path d="M485.263 45.2126L536.437 65.414L493.709 100.175L485.263 45.2126Z" fill="#8338EC" stroke="black"/>
</svg>
