<svg width="522" height="335" viewBox="0 0 522 335" fill="none" xmlns="http://www.w3.org/2000/svg">
<g clip-path="url(#clip0_40_2)">
<path d="M486.642 315.497C486.5 321.531 485.616 327.512 484.015 333.264C483.98 333.397 483.94 333.529 483.902 333.662H474.101C474.111 333.542 474.122 333.409 474.132 333.264C474.786 324.675 471.052 273.026 466.547 264.086C466.942 264.812 487.402 288.207 486.642 315.497Z" fill="#F1F1F1"/>
<path d="M485.906 333.264C485.824 333.397 485.739 333.531 485.652 333.662H478.299C478.355 333.548 478.419 333.415 478.494 333.264C479.709 330.757 483.304 323.264 486.641 315.497C490.226 307.149 493.518 298.485 493.241 295.349C493.327 296.056 495.808 317.617 485.906 333.264Z" fill="#F1F1F1"/>
<path d="M27.1243 320.171C27.2294 324.652 27.8861 329.094 29.0751 333.366C29.1014 333.465 29.1307 333.563 29.1592 333.662H36.4384C36.4308 333.573 36.4229 333.474 36.4152 333.366C35.9299 326.987 38.7026 288.628 42.0484 281.989C41.7553 282.527 26.56 299.903 27.1243 320.171Z" fill="#F1F1F1"/>
<path d="M27.6706 333.366C27.7314 333.465 27.7947 333.564 27.8596 333.662H33.3206C33.2792 333.578 33.2313 333.478 33.1757 333.366C32.2736 331.505 29.6034 325.94 27.1249 320.171C24.4624 313.971 22.0176 307.537 22.2235 305.208C22.1597 305.733 20.3165 321.745 27.6706 333.366Z" fill="#F1F1F1"/>
<path d="M382.75 234.985C327.772 208.35 278.033 209.362 231.182 225.619C158.996 211.207 109.566 213.437 77.8595 234.985V168.085H382.75V234.985Z" fill="#CBCBCB"/>
<path d="M382.75 216.588C332.099 190.351 281.51 188.657 230.158 216.588C177.562 199.275 126.716 199.456 77.5669 216.588V13.2127C129.822 -4.61672 180.652 -4.18827 230.158 13.2127C282.453 -4.12816 333.362 -4.67813 382.75 13.2127V216.588Z" fill="#E5E5E5"/>
<path d="M91.2929 38.4513L89.5891 33.4661C90.2569 33.1679 106.213 26.116 129.631 22.5188C151.281 19.1925 183.537 18.3984 214.258 33.5001L212.409 38.417C182.715 23.8206 151.413 24.5892 130.382 27.8035C107.49 31.303 91.4522 38.3801 91.2929 38.4513Z" fill="white"/>
<path d="M91.2929 57.1832L89.5891 52.1981C90.2569 51.8998 106.213 44.8479 129.631 41.2508C151.281 37.9247 183.537 37.1306 214.258 52.232L212.409 57.1489C182.715 42.5525 151.413 43.3205 130.382 46.5354C107.49 50.0349 91.4522 57.112 91.2929 57.1832Z" fill="white"/>
<path d="M91.2929 75.9151L89.5891 70.93C90.2569 70.6317 106.213 63.5798 129.631 59.9827C151.281 56.6563 183.537 55.8622 214.258 70.9639L212.409 75.8808C182.715 61.2844 151.413 62.0524 130.382 65.2673C107.49 68.7668 91.4522 75.8439 91.2929 75.9151Z" fill="white"/>
<path d="M91.2929 94.647L89.5891 89.6619C90.2569 89.3636 106.213 82.3117 129.631 78.7146C151.281 75.3888 183.537 74.5937 214.258 89.6958L212.409 94.6127C182.715 80.0163 151.413 80.7846 130.382 83.9992C107.49 87.4987 91.4522 94.5758 91.2929 94.647Z" fill="white"/>
<path d="M91.2929 113.379L89.5891 108.394C90.2569 108.096 106.213 101.044 129.631 97.4464C151.281 94.1201 183.537 93.326 214.258 108.428L212.409 113.345C182.715 98.7479 151.413 99.5165 130.382 102.731C107.49 106.231 91.4522 113.308 91.2929 113.379Z" fill="white"/>
<path d="M91.2929 132.111L89.5891 127.126C90.2569 126.827 106.213 119.775 129.631 116.178C151.281 112.853 183.537 112.058 214.258 127.16L212.409 132.076C182.715 117.48 151.413 118.249 130.382 121.463C107.49 124.962 91.4522 132.04 91.2929 132.111Z" fill="white"/>
<path d="M244.031 171.582L242.327 166.596C242.995 166.298 258.951 159.246 282.368 155.649C304.019 152.323 336.275 151.529 366.996 166.63L365.147 171.547C335.453 156.951 304.15 157.719 283.119 160.934C260.228 164.433 244.19 171.51 244.031 171.582Z" fill="#6C63FF"/>
<path d="M242.594 135.632V33.3221L244.237 32.7354C285.87 17.8682 327.301 17.8711 367.379 32.7442L368.997 33.3446V135.495L365.83 134.129C324.123 116.134 283.75 116.123 245.831 134.097L242.594 135.632ZM304.37 115.26C323.965 115.26 343.947 119.436 364.316 127.787V37.243C326.211 23.5053 286.849 23.5129 247.275 37.2649V127.663C265.458 119.474 284.826 115.266 304.37 115.26Z" fill="white"/>
<path d="M364.413 168.931L365.026 151.904L386.062 104.091C386.655 102.732 387.622 101.633 388.814 100.963C389.545 100.546 390.34 100.3 391.155 100.24C391.969 100.179 392.786 100.304 393.557 100.609C394.451 100.961 395.261 101.544 395.925 102.313C396.589 103.082 397.088 104.016 397.384 105.042C397.511 105.485 397.6 105.941 397.651 106.404C397.8 107.777 397.588 109.17 397.041 110.404L375.976 158.281L364.413 168.931Z" fill="#6C63FF"/>
<path d="M391.434 100.56L368.6 152.461L366.859 151.46L388.944 101.263C389.718 100.82 390.569 100.58 391.434 100.56Z" fill="#3F3D56"/>
<path d="M397.36 106.446L375.396 156.369L373.655 155.368L396.442 103.575C396.723 104.064 396.946 104.592 397.106 105.147C397.227 105.57 397.313 106.005 397.36 106.446Z" fill="#3F3D56"/>
<path d="M395.174 101.992L372.087 154.466L370.346 153.465L393.462 100.925C393.708 101.021 393.948 101.137 394.181 101.271C394.532 101.473 394.864 101.715 395.174 101.992Z" fill="#3F3D56"/>
<path d="M367.054 166.07L364.731 168.209L364.925 162.57C365.723 162.886 366.587 164.259 367.054 166.07Z" fill="#3F3D56"/>
<path d="M137.917 227.528L135.136 217.884L138.099 186.173C138.18 185.273 138.518 184.428 139.06 183.768C139.391 183.361 139.79 183.033 140.233 182.804C140.676 182.575 141.155 182.449 141.641 182.434C142.204 182.416 142.763 182.547 143.274 182.817C143.785 183.087 144.235 183.488 144.589 183.99C144.741 184.206 144.874 184.439 144.987 184.685C145.322 185.415 145.459 186.243 145.38 187.062L142.414 218.816L137.917 227.528Z" fill="#6C63FF"/>
<path d="M140.448 182.916L137.232 217.338L136.077 217.197L139.187 183.905C139.538 183.472 139.969 183.134 140.448 182.916Z" fill="#3F3D56"/>
<path d="M144.833 184.778L141.739 217.889L140.584 217.748L143.794 183.397C144.04 183.602 144.262 183.843 144.453 184.115C144.598 184.321 144.725 184.544 144.833 184.778Z" fill="#3F3D56"/>
<path d="M142.796 182.818L139.544 217.621L138.39 217.48L141.645 182.633C141.801 182.628 141.956 182.635 142.11 182.654C142.343 182.683 142.573 182.738 142.796 182.818Z" fill="#3F3D56"/>
<path d="M138.865 225.3L137.962 227.049L137.036 223.857C137.539 223.843 138.273 224.401 138.865 225.3Z" fill="#3F3D56"/>
<path d="M439.159 216.219C438.842 216.852 438.419 217.408 437.914 217.855C437.41 218.302 436.833 218.63 436.217 218.822C434.973 219.209 433.646 219.016 432.527 218.285C431.408 217.553 430.589 216.343 430.25 214.922C429.911 213.5 430.08 211.982 430.72 210.703C430.731 210.681 430.742 210.66 430.753 210.638C430.889 210.378 431.042 210.13 431.211 209.896L427.122 176.583L427 175.585L426.169 168.787L426.047 167.807L426.5 167.832L434.421 168.245L436.545 168.355L436.811 174.556L438.318 209.421C439.105 210.282 439.616 211.421 439.768 212.654C439.921 213.887 439.706 215.142 439.159 216.219Z" fill="#FFB8B8"/>
<path d="M427.023 175.887L437.082 174.832C437.604 174.775 438.085 174.485 438.42 174.025C438.756 173.565 438.918 172.972 438.873 172.375L437.01 148.463C436.83 146.16 435.857 144.033 434.305 142.55C432.754 141.067 430.75 140.349 428.735 140.555C426.721 140.76 424.86 141.872 423.563 143.646C422.265 145.42 421.637 147.711 421.817 150.014C421.83 150.178 421.847 150.343 421.868 150.506L424.884 173.961C424.954 174.498 425.19 174.989 425.549 175.344C425.908 175.7 426.367 175.895 426.842 175.896C426.903 175.898 426.963 175.894 427.023 175.887Z" fill="#CBCBCB"/>
<path d="M434.648 156.569C435.665 153.274 435.712 149.69 434.782 146.362C433.852 143.035 431.995 140.146 429.495 138.136C425.702 135.17 420.512 134.105 414.922 141.712C408.158 150.999 403.334 161.925 400.815 173.662L423.706 177.922C423.706 177.922 431.49 167.043 434.648 156.569Z" fill="#CBCBCB"/>
<path d="M397.625 327.946H391.098L387.994 299.168H397.626L397.625 327.946Z" fill="#FFB8B8"/>
<path d="M378.513 334.873H399.025V325.813H386.438C384.336 325.813 382.32 326.768 380.834 328.467C379.348 330.166 378.513 332.47 378.513 334.873Z" fill="#2F2E41"/>
<path d="M451.282 321.438L445.085 323.78L434.236 297.57L443.382 294.114L451.282 321.438Z" fill="#FFB8B8"/>
<path d="M435.036 334.873L454.512 327.514L452.025 318.912L440.074 323.428C438.078 324.182 436.426 325.811 435.482 327.958C434.537 330.104 434.377 332.592 435.036 334.873Z" fill="#2F2E41"/>
<path d="M420.278 130.591C427.499 130.591 433.353 123.899 433.353 115.644C433.353 107.389 427.499 100.697 420.278 100.697C413.057 100.697 407.203 107.389 407.203 115.644C407.203 123.899 413.057 130.591 420.278 130.591Z" fill="#FFB8B8"/>
<path d="M408.83 319.935L414.891 274.204C414.955 273.716 415.166 273.269 415.488 272.939C415.809 272.609 416.22 272.417 416.652 272.395C417.083 272.374 417.507 272.524 417.853 272.821C418.198 273.117 418.442 273.542 418.544 274.022L427.773 317.603C427.919 318.27 428.277 318.852 428.778 319.233C429.28 319.614 429.887 319.767 430.482 319.663L455.941 314.985C456.279 314.923 456.601 314.779 456.886 314.563C457.171 314.347 457.412 314.064 457.593 313.732C457.775 313.401 457.892 313.029 457.937 312.641C457.982 312.254 457.953 311.86 457.854 311.486L424.657 186.364C424.562 186.008 424.551 185.63 424.624 185.268L425.729 179.791C425.851 179.198 425.795 178.574 425.57 178.021C425.346 177.468 424.966 177.017 424.491 176.74C419.97 174.103 408.52 168.621 399.88 174.626C399.599 174.821 399.356 175.08 399.166 175.386C398.976 175.693 398.842 176.04 398.773 176.407L372.839 315.751C372.769 316.13 372.769 316.522 372.841 316.901C372.913 317.279 373.054 317.636 373.255 317.948C373.456 318.26 373.713 318.519 374.008 318.709C374.304 318.899 374.631 319.015 374.969 319.049L406.248 322.251C406.319 322.259 406.389 322.262 406.46 322.262C407.033 322.261 407.587 322.026 408.021 321.599C408.455 321.172 408.742 320.582 408.828 319.935L408.83 319.935Z" fill="#2F2E41"/>
<path d="M428.948 105.083C427.962 104.405 427.088 103.536 426.363 102.515C426.006 101.999 425.77 101.386 425.68 100.736C425.589 100.086 425.647 99.4201 425.847 98.8027C426.508 97.1364 428.47 96.6118 429.992 97.1772C431.513 97.7426 432.688 99.1076 433.8 100.423C434.779 101.579 435.786 102.791 436.248 104.312C436.711 105.833 436.474 107.761 435.319 108.685C434.185 109.59 432.555 109.22 431.465 108.247C430.435 107.184 429.614 105.883 429.056 104.431L428.948 105.083Z" fill="#2F2E41"/>
<path d="M433.376 100.824C433.449 96.613 437.648 93.5927 441.275 94.3394C444.902 95.0861 447.689 98.6207 449.084 102.519C452.032 110.756 449.819 120.155 446.979 128.444C444.138 136.734 440.623 145.143 441.037 154.03C441.318 158.834 442.728 163.462 445.119 167.425C447.51 171.389 450.792 174.54 454.62 176.548C450.527 178.668 445.635 176.478 442.196 173.171C434.558 165.829 431.61 152.756 435.19 142.107C436.955 136.855 440.067 132.361 442.497 127.468C444.927 122.574 446.709 116.807 445.455 111.365C444.2 105.924 438.862 101.519 434.298 103.624L433.376 100.824Z" fill="#2F2E41"/>
<path d="M419.494 122.276C420.634 120.075 421.783 117.184 419.7 115.259C419.247 114.86 418.729 114.568 418.176 114.4C417.623 114.233 417.046 114.194 416.48 114.285C414.131 114.609 411.573 114.742 409.3 113.767C408.447 113.431 407.662 112.903 406.991 112.214C406.32 111.525 405.777 110.689 405.395 109.756C404.224 106.577 405.691 102.713 408.144 100.704C409.645 99.5192 411.419 98.8675 413.243 98.8306C415.067 98.7937 416.859 99.3732 418.396 100.496C421.574 98.8916 425.43 99.6054 428.318 101.815C431.205 104.024 433.18 107.561 434.254 111.339C435.242 114.59 435.413 118.093 434.745 121.45C434.208 123.785 433.186 125.938 431.767 127.726C430.348 129.514 428.573 130.885 426.592 131.722C425.82 132.07 424.982 132.18 424.162 132.041C423.341 131.902 422.567 131.519 421.917 130.931C420.86 129.847 420.048 128.487 419.551 126.967C419.117 125.301 418.885 123.453 419.494 122.276Z" fill="#2F2E41"/>
<path d="M380.706 135.614C380.772 135.942 380.814 136.276 380.833 136.612L403.701 151.694L409.26 148.035L415.185 156.903L405.896 164.473C405.145 165.085 404.241 165.401 403.32 165.376C402.398 165.35 401.509 164.983 400.785 164.33L377.202 143.063C376.138 143.514 374.979 143.584 373.879 143.263C372.779 142.942 371.79 142.246 371.045 141.267C370.299 140.288 369.832 139.073 369.706 137.783C369.579 136.494 369.799 135.191 370.337 134.047C370.874 132.904 371.703 131.975 372.713 131.383C373.724 130.792 374.868 130.566 375.993 130.736C377.119 130.907 378.172 131.464 379.013 132.336C379.855 133.207 380.444 134.35 380.703 135.614L380.706 135.614Z" fill="#FFB8B8"/>
<path d="M404.466 152.408L411.857 163.359C412.068 163.67 412.334 163.926 412.639 164.109C412.943 164.291 413.279 164.397 413.622 164.419C413.965 164.44 414.309 164.377 414.629 164.233C414.949 164.09 415.239 163.869 415.477 163.586L423.844 153.653C424.548 153.058 425.142 152.31 425.593 151.452C426.043 150.593 426.341 149.642 426.469 148.652C426.597 147.662 426.554 146.653 426.34 145.682C426.126 144.712 425.748 143.799 425.225 142.996C424.702 142.193 424.046 141.516 423.294 141.004C422.542 140.491 421.709 140.153 420.843 140.009C419.976 139.866 419.094 139.919 418.245 140.165C417.397 140.412 416.6 140.848 415.899 141.448C415.826 141.509 415.755 141.573 415.685 141.638L405.191 148.345C404.891 148.537 404.63 148.801 404.427 149.119C404.224 149.437 404.083 149.801 404.014 150.186C403.945 150.572 403.95 150.97 404.028 151.353C404.105 151.737 404.254 152.096 404.465 152.408H404.466Z" fill="#CBCBCB"/>
<path d="M122.045 327.012L129.139 327.011L132.515 295.728L122.044 295.729L122.045 327.012Z" fill="#A0616A"/>
<path d="M120.235 324.363L134.207 324.363H134.208C136.569 324.363 138.834 325.435 140.503 327.344C142.173 329.253 143.111 331.842 143.112 334.541V334.872L120.236 334.873L120.235 324.363Z" fill="#2F2E41"/>
<path d="M66.8043 323.501L73.8191 324.713L81.2471 294.358L72.0507 292.569L66.8043 323.501Z" fill="#A0616A"/>
<path d="M65.3609 320.573L79.1758 322.96C81.5107 323.364 83.6102 324.811 85.0116 326.984C86.413 329.157 87.0021 331.877 86.6493 334.546L86.606 334.873L63.9871 330.965L65.3609 320.573Z" fill="#2F2E41"/>
<path d="M88.6786 171.979L96.5559 174.339L96.0318 188.939L95.9669 215.521C96.7429 216.134 97.3378 217.003 97.6727 218.011C98.0076 219.02 98.0668 220.121 97.8424 221.168C97.6181 222.216 97.1208 223.161 96.4163 223.879C95.7118 224.597 94.8333 225.053 93.8971 225.187C92.9608 225.322 92.0109 225.128 91.173 224.632C90.3351 224.136 89.6487 223.361 89.2046 222.409C88.7605 221.457 88.5796 220.374 88.6858 219.302C88.7921 218.23 89.1804 217.22 89.7996 216.406L87.379 189.727L88.6786 171.979Z" fill="#A0616A"/>
<path d="M87.3074 155.256C87.3509 153.845 87.7489 152.478 88.4538 151.319C89.1587 150.16 90.1407 149.257 91.2825 148.719C92.3513 148.172 93.5364 147.994 94.6925 148.207C95.8485 148.419 96.9251 149.013 97.79 149.915C98.4117 150.55 98.9047 151.333 99.2347 152.208C99.5647 153.083 99.7237 154.03 99.7007 154.983C99.7215 163.536 98.0325 176.003 98.0154 176.127L97.9884 176.326L86.4744 180.758L87.3074 155.256Z" fill="#CBCBCB"/>
<path d="M107.895 179.535L125.506 174.324L133.646 205.666L133.936 322.429L120.469 322.333L114.839 227.828L78.9606 315.152L64.4935 313.167L96.0318 219.559C96.0318 219.559 94.2958 203.02 99.7933 194.75L98.6359 186.15L107.895 179.535Z" fill="#2F2E41"/>
<path d="M96.0202 187.333C95.774 186.991 95.5951 186.592 95.4958 186.164C95.3964 185.736 95.3789 185.288 95.4444 184.851L87.4115 157.302C87.0365 156.014 86.9967 154.629 87.2968 153.316C87.597 152.003 88.2243 150.817 89.1025 149.904L92.5897 146.28L94.9529 135.474L108.535 139.269L107.416 144.387L113.564 143.109L126.511 176.076L99.4473 188.442L98.1145 188.466C97.7137 188.467 97.3178 188.365 96.9555 188.169C96.5932 187.973 96.2737 187.688 96.0202 187.333Z" fill="#CBCBCB"/>
<path d="M114.872 164.072L122.633 161.252L129.017 173.912L141.391 196.417C142.334 196.462 143.243 196.832 143.997 197.48C144.752 198.127 145.317 199.022 145.617 200.044C145.918 201.067 145.939 202.17 145.679 203.207C145.42 204.244 144.89 205.166 144.162 205.852C143.434 206.538 142.54 206.955 141.6 207.047C140.66 207.14 139.717 206.904 138.897 206.371C138.077 205.838 137.417 205.033 137.006 204.062C136.594 203.092 136.451 202.001 136.593 200.935L122.073 179.866L114.872 164.072Z" fill="#A0616A"/>
<path d="M105.894 150.776C105.271 149.557 104.969 148.159 105.022 146.748C105.076 145.338 105.484 143.975 106.197 142.822C106.845 141.708 107.764 140.833 108.84 140.307C109.916 139.78 111.104 139.624 112.256 139.857C113.079 140.014 113.861 140.374 114.549 140.912C115.237 141.45 115.815 142.153 116.241 142.972C120.257 150.188 124.659 161.757 124.703 161.872L124.773 162.056L117.114 172.838L105.894 150.776Z" fill="#CBCBCB"/>
<path d="M105.002 133.463C110.962 133.463 115.794 127.939 115.794 121.126C115.794 114.312 110.962 108.789 105.002 108.789C99.0421 108.789 94.2104 114.312 94.2104 121.126C94.2104 127.939 99.0421 133.463 105.002 133.463Z" fill="#A0616A"/>
<path d="M85.9307 115.922C91.6719 115.922 96.326 110.601 96.326 104.038C96.326 97.4748 91.6719 92.1543 85.9307 92.1543C80.1896 92.1543 75.5355 97.4748 75.5355 104.038C75.5355 110.601 80.1896 115.922 85.9307 115.922Z" fill="#2F2E41"/>
<path d="M76.9642 113.879C78.3097 114.99 79.8685 115.717 81.5102 115.999C83.1519 116.281 84.8288 116.109 86.4005 115.498C87.9723 114.887 89.3932 113.855 90.5443 112.488C91.6955 111.12 92.5435 109.457 93.0173 107.639C92.838 109.269 92.3651 110.838 91.6283 112.249C90.8915 113.659 89.9069 114.88 88.7367 115.834C87.5665 116.787 86.236 117.453 84.8293 117.789C83.4226 118.125 81.9703 118.124 80.564 117.786C79.1576 117.448 77.8279 116.78 76.6586 115.825C75.4894 114.87 74.5061 113.648 73.7708 112.237C73.0355 110.825 72.5641 109.255 72.3865 107.625C72.2089 105.994 72.3289 104.34 72.7389 102.765C72.506 104.881 72.7755 107.029 73.5189 108.984C74.2623 110.939 75.4524 112.63 76.9642 113.879Z" fill="#2F2E41"/>
<path d="M117.989 113.892C116.174 110.178 115.479 108.626 113.14 106.368C111.07 104.37 108.525 103.784 106.472 105.676C104.044 104.477 101.342 104.205 98.7671 104.901C96.1926 105.597 93.8831 107.223 92.1817 109.539C90.4804 111.855 89.4779 114.737 89.3231 117.756C89.1684 120.775 89.8697 123.771 91.3228 126.298C92.776 128.825 94.9035 130.749 97.3893 131.784C99.8751 132.819 102.587 132.91 105.121 132.042C107.656 131.175 109.878 129.397 111.458 126.971C113.037 124.545 113.89 121.601 113.89 118.577C113.888 118.046 113.86 117.515 113.807 116.988C115.591 116.701 116.204 114.178 117.989 113.892Z" fill="#2F2E41"/>
<path d="M223.547 335H0.585202C0.429997 335 0.281148 334.93 0.171401 334.804C0.0616546 334.679 0 334.508 0 334.331C0 334.154 0.0616546 333.983 0.171401 333.858C0.281148 333.733 0.429997 333.662 0.585202 333.662H223.547C223.702 333.662 223.851 333.733 223.961 333.858C224.071 333.983 224.132 334.154 224.132 334.331C224.132 334.508 224.071 334.679 223.961 334.804C223.851 334.93 223.702 335 223.547 335Z" fill="#CBCBCB"/>
<path d="M521.415 335H298.453C298.298 335 298.149 334.93 298.039 334.804C297.929 334.679 297.868 334.508 297.868 334.331C297.868 334.154 297.929 333.983 298.039 333.858C298.149 333.733 298.298 333.662 298.453 333.662H521.415C521.57 333.662 521.719 333.733 521.829 333.858C521.938 333.983 522 334.154 522 334.331C522 334.508 521.938 334.679 521.829 334.804C521.719 334.93 521.57 335 521.415 335Z" fill="#CBCBCB"/>
<path d="M230.743 13.2127H229.573V215.944H230.743V13.2127Z" fill="#CBCBCB"/>
</g>
<defs>
<clipPath id="clip0_40_2">
<rect width="522" height="335" fill="white"/>
</clipPath>
</defs>
</svg>
